<svg xmlns="http://www.w3.org/2000/svg" width="12" height="16" viewBox="0 0 12 16">
  <g id="location" transform="translate(-2)">
    <path id="Caminho_1" data-name="Caminho 1" d="M12.166,8.94a19.226,19.226,0,0,1-1.96,3.07A32,32,0,0,1,8,14.58a32,32,0,0,1-2.206-2.57,19.226,19.226,0,0,1-1.96-3.07A6.919,6.919,0,0,1,3,6,5,5,0,0,1,13,6a6.933,6.933,0,0,1-.834,2.94M8,16s6-5.686,6-10A6,6,0,1,0,2,6c0,4.314,6,10,6,10" fill="#d8ad5f"/>
    <path id="Caminho_2" data-name="Caminho 2" d="M8,8a2,2,0,1,1,2-2A2,2,0,0,1,8,8M8,9A3,3,0,1,0,5,6,3,3,0,0,0,8,9" fill="#d8ad5f"/>
  </g>
</svg>
