<svg xmlns="http://www.w3.org/2000/svg" width="16" height="16" viewBox="0 0 16 16">
  <path id="telegram" d="M16,8A8,8,0,1,1,8,0a8,8,0,0,1,8,8M8.287,5.906q-1.168.486-4.666,2.01-.567.225-.6.442c-.03.243.275.339.69.47l.175.055a5.682,5.682,0,0,0,1.243.294A1.5,1.5,0,0,0,6,8.857q3.269-2.206,3.374-2.23a.181.181,0,0,1,.166.016.165.165,0,0,1,.037.141A22.593,22.593,0,0,1,7.733,8.6c-.193.18-.33.307-.358.336q-.092.095-.188.186c-.38.366-.664.64.015,1.088.327.216.589.393.85.571.284.194.568.387.936.629q.14.092.27.187a1.522,1.522,0,0,0,1,.414c.214-.02.435-.22.547-.82.265-1.417.786-4.486.906-5.751a1.4,1.4,0,0,0-.013-.315.34.34,0,0,0-.114-.217.53.53,0,0,0-.31-.093,12.418,12.418,0,0,0-2.984,1.09" fill="#d8ad5f"/>
</svg>
